PathFileType	4	(X/Y/Z)	2014001\dynamic\2014001_C3_01.trc
DataRate	CameraRate	NumFrames	NumMarkers	Units	OrigDataRate	OrigDataStartFrame	OrigNumFrames
100.000000	100.000000	4	52	mm	100.000000	24	192
Frame#	Time	L_IAS			L_IPS			R_IPS			R_IAS			L_FTC			L_FLE			L_FME			L_FAX			L_TTC			L_FAL			L_TAM			L_FCC			L_FM1			L_FM2			L_FM5			R_FTC			R_FLE			R_FME			R_FAX			R_TTC			R_FAL			R_TAM			R_FCC			R_FM1			R_FM2			R_FM5			CV7			TV10			SXS			SJN			L_SIA			L_SRS			L_SAA			L_SAE			L_HLE			L_HME			L_UOA			L_RSP			L_UHE			L_HM2			L_HM5			R_SIA			R_SRS			R_SAA			R_SAE			R_HLE			R_HME			R_UOA			R_RSP			R_UHE			R_HM2			R_HM5			
		X1	Y1	Z1	X2	Y2	Z2	X3	Y3	Z3	X4	Y4	Z4	X5	Y5	Z5	X6	Y6	Z6	X7	Y7	Z7	X8	Y8	Z8	X9	Y9	Z9	X10	Y10	Z10	X11	Y11	Z11	X12	Y12	Z12	X13	Y13	Z13	X14	Y14	Z14	X15	Y15	Z15	X16	Y16	Z16	X17	Y17	Z17	X18	Y18	Z18	X19	Y19	Z19	X20	Y20	Z20	X21	Y21	Z21	X22	Y22	Z22	X23	Y23	Z23	X24	Y24	Z24	X25	Y25	Z25	X26	Y26	Z26	X27	Y27	Z27	X28	Y28	Z28	X29	Y29	Z29	X30	Y30	Z30	X31	Y31	Z31	X32	Y32	Z32	X33	Y33	Z33	X34	Y34	Z34	X35	Y35	Z35	X36	Y36	Z36	X37	Y37	Z37	X38	Y38	Z38	X39	Y39	Z39	X40	Y40	Z40	X41	Y41	Z41	X42	Y42	Z42	X43	Y43	Z43	X44	Y44	Z44	X45	Y45	Z45	X46	Y46	Z46	X47	Y47	Z47	X48	Y48	Z48	X49	Y49	Z49	X50	Y50	Z50	X51	Y51	Z51	X52	Y52	Z52	

25	0.24	372.9284973144532	871.3082885742192	218.034881591797	306.0459289550782	904.1491699218755	34.51781082153322	216.6792297363282	899.9873046875005	29.64217948913576	133.1730041503907	864.5313110351567	204.1703186035157	432.8544006347659	783.9528808593755	152.386459350586	387.2239074707034	439.481140136719	251.1791534423829	270.4752502441407	441.7612304687502	265.7589416503907	390.1231079101565	376.160369873047	237.0352783203126	339.1062316894532	361.8826599121095	297.1211547851564	338.3143920898439	61.33721542358401	204.7981109619142	251.1504211425782	71.91029357910159	227.1838989257814	293.5521850585939	21.75893020629884	159.6971588134766	267.9544372558595	25.62208747863771	343.5044250488282	330.9929809570314	36.38034820556642	350.6846618652345	376.179412841797	24.92186164855958	294.885955810547	83.55642700195315	771.4617309570317	98.48237609863287	84.53730010986331	429.9685974121096	73.92877960205081	199.4997558593751	395.1609497070315	106.0618591308594	81.13150024414065	390.8442382812502	22.44333648681641	118.0819702148438	337.8644409179689	72.69849395751956	132.7733764648438	200.6304931640626	-225.3333282470704	207.7483367919923	173.4328155517579	-177.5518341064454	197.9938354492189	206.9553222656251	-268.6441955566407	194.7012939453126	52.5740776062012	-183.0307006835938	137.0820922851563	57.61302185058597	-183.3904876708985	101.7289428710938	89.09336853027347	-227.6154022216798	263.7035217285157	1368.290405273438	55.76700210571292	257.6177673339845	1133.970581054688	-2.059511184692384	274.3233032226564	1146.652465820313	234.1467132568361	274.6542968750001	1306.143676757813	187.2023925781251	350.4833984375001	1171.131469726563	-11.61933898925782	347.3062133789064	1302.716064453125	8.817728042602543	460.773132324219	1296.190551757813	74.93006896972659	449.4939575195315	1308.252685546875	116.1401977539063	513.5581054687502	1021.580993652344	85.44314575195315	435.8136901855471	992.4560546875005	62.30176162719729	484.725036621094	992.3488769531255	53.59711074829104	482.7625732421877	783.6478881835942	162.5372009277344	547.2068481445315	787.1320190429692	114.6483535766602	491.8242492675784	697.1621704101565	180.9844818115235	551.3230590820315	710.5933227539065	99.83600616455084	138.6700592041016	1180.649658203125	6.004366874694828	168.1234588623047	1302.01123046875	26.27828407287599	72.85300445556643	1305.161743164063	113.2813339233399	91.76612854003909	1311.382568359375	160.1134033203126	3.133931636810305	1010.228637695313	151.8437957763672	74.7353210449219	988.7507324218755	117.3808135986329	28.27866554260255	981.3469238281255	120.4707641601563	44.47581100463869	820.0641479492192	278.4468688964845	-25.02618789672853	809.5444335937505	236.8718566894532	33.3459815979004	741.9732666015627	328.100555419922	-26.74248123168947	731.5115966796877	245.5376739501954	
26	0.25	374.2438049316407	872.3786010742192	228.2844238281251	307.8988037109376	905.6998901367192	44.8424644470215	218.5577087402345	901.662475585938	39.39318847656251	134.4074859619141	866.4786987304692	213.5866546630861	434.1117858886721	785.109741210938	162.3768615722657	387.9067993164065	439.001892089844	255.0324249267579	271.0979614257814	441.0804443359377	269.3824462890626	390.6606140136721	375.7920837402345	240.0839233398439	339.6150817871095	360.9884033203126	299.929901123047	338.2183532714845	61.25788116455081	204.7299346923829	251.0635223388673	71.79331970214847	227.2102355957032	293.4624023437501	21.81465339660645	159.555160522461	268.0241699218751	25.65477943420412	343.4727783203126	331.0460205078126	36.33988571166994	350.5908508300782	376.1536865234376	24.8037796020508	294.8056640625001	85.22370147705081	772.755249023438	109.1036376953126	83.9766540527344	430.3302001953127	94.97327423095706	198.943328857422	395.6179809570315	128.0052337646485	80.556755065918	391.9211425781252	44.11548614501955	117.4887924194337	338.3482055664064	93.92848205566409	133.575424194336	206.4175415039064	-206.3562469482423	208.1556701660157	177.437484741211	-158.5935668945313	199.3304138183595	212.5263977050782	-249.3461303710939	190.9916229248047	56.29397583007815	-165.2625885009766	133.6661529541016	62.49050521850589	-166.4212493896485	100.0370788574219	96.53403472900396	-210.7682037353517	265.2351684570314	1370.005859375	65.63554382324222	260.1641235351564	1135.584350585938	7.988560199737552	274.9812622070314	1148.317626953125	243.9760589599611	275.1400451660157	1307.896240234375	197.0596313476564	353.7046813964845	1173.2021484375	-0.8929572701454167	349.6909484863282	1304.649291992188	19.56987953186036	462.679382324219	1298.475463867188	87.18499755859378	450.6089172363284	1310.558837890625	128.1726074218751	515.5607910156252	1023.331237792969	102.255714416504	438.2971191406252	993.8695678710942	77.62866973876956	487.5368957519534	993.2371215820317	70.19120025634768	481.4281311035159	787.3218383789067	184.6477813720704	547.1292724609377	789.2539672851567	138.2173767089844	490.0617675781252	701.701599121094	205.9825592041017	551.3408203125002	712.361755371094	125.8212051391602	141.4235839843751	1182.026123046875	14.5022954940796	170.2324371337891	1303.489501953125	35.25979232788087	74.0842208862305	1306.164306640625	121.407455444336	92.59090423583987	1312.08154296875	168.4862213134766	6.025096416473392	1010.8466796875	157.6382141113282	78.07485198974612	990.143676757813	123.6649780273438	31.70583724975587	982.9957885742192	125.8793106079102	44.65668106079103	816.7770996093755	278.7844238281251	-24.46484565734865	808.2089233398442	235.9331054687501	32.72691726684572	736.2031250000002	324.7311096191407	-26.7682285308838	729.931823730469	241.2434539794923	
27	0.26	375.5289001464845	873.4176635742192	238.2980346679689	309.6549377441407	907.220092773438	54.9609069824219	220.3299713134767	903.3648071289067	49.00827789306643	135.615463256836	868.4797363281255	222.9297332763673	435.314636230469	786.2148437500005	172.0642395019532	388.5903625488284	438.5712585449221	258.5244445800782	271.7600708007814	440.3995361328127	272.6820678710939	391.1987304687502	375.4753723144532	242.8257446289064	340.1412963867189	360.1772766113282	302.4537048339845	338.1772460937501	61.20624160766604	204.6981506347657	251.0417022705079	71.71834564208987	227.2536010742189	293.3957824707032	21.92015266418458	159.429183959961	268.1129760742189	25.62825393676759	343.4558105468751	331.1206054687501	36.22427368164064	350.5325317382814	376.1625366210939	24.62549972534181	294.7450561523439	86.71196746826175	774.189331054688	119.6261367797852	83.51071929931643	431.103942871094	115.897071838379	198.5034027099611	396.6279907226565	149.7777862548829	80.13468170166018	393.2700195312502	65.73787689208987	117.0021972656251	339.2159423828126	115.2644500732422	134.3975067138672	211.2674713134767	-186.5282745361329	208.5771484375001	180.7911987304688	-138.6890106201172	200.6504058837892	216.7620239257814	-229.3057098388673	187.2210998535157	59.56132125854495	-145.4974975585938	130.1362915039063	67.10354614257815	-147.3665924072266	98.21908569335943	103.1792602539063	-192.067108154297	266.7148742675782	1371.706298828125	75.4270935058594	262.6406860351564	1137.20361328125	17.87437248229981	275.5188598632814	1149.88916015625	253.6202545166017	275.5227966308595	1309.587890625	206.8073120117189	356.9036865234376	1175.304321289063	9.71986293792725	352.0632629394532	1306.6123046875	30.26064491271974	464.4975891113284	1300.764526367188	99.47153472900396	451.5832824707034	1312.828735351563	140.2276916503907	517.568298339844	1025.205200195313	119.0733947753907	440.8940734863284	995.291137695313	92.95408630371097	490.4276428222659	994.196411132813	86.822380065918	479.9656372070315	791.2953491210942	206.7599334716798	546.923767089844	791.6848754882817	161.9165954589844	488.1438598632815	706.6824340820315	231.0851898193361	551.2189941406252	714.5058593750002	152.0542755126954	144.1644287109376	1183.422607421875	22.76745796203614	172.3227081298829	1304.988647460938	44.04946899414064	75.25818634033206	1307.127075195313	129.3105621337891	93.33351898193362	1312.696533203125	176.6498107910157	8.846602439880375	1011.486267089844	163.1892395019532	81.38260650634768	991.470336914063	129.9439392089844	35.11507797241212	984.6235351562505	131.2289123535157	44.67119216918947	813.858764648438	279.0650024414064	-23.93750381469727	807.2120971679692	234.9161682128907	31.85695266723634	731.001892089844	321.3117065429689	-26.82785034179689	728.8433227539065	236.9488372802736	
28	0.27	376.8150939941407	874.4183959960942	248.0764465332032	311.3121643066407	908.702270507813	64.87921905517581	221.9876098632814	905.0745239257817	58.50958251953128	136.8337860107422	870.5293579101567	232.2372283935548	436.474304199219	787.2554321289067	181.4390716552735	389.2733459472659	438.1971740722659	261.7124938964845	272.4602661132814	439.7463989257815	275.7540893554689	391.7335510253909	375.2201538085939	245.3105926513673	340.6886291503907	359.4505920410157	304.7508239746095	338.1787719726564	61.19442367553714	204.7084960937501	251.0747680664064	71.69304656982425	227.3223724365236	293.3491210937501	22.0815544128418	159.3363189697266	268.2094726562501	25.55805397033693	343.4520263671876	331.2110595703126	36.0604705810547	350.5136718750001	376.2062072753907	24.41809463500978	294.703582763672	88.02706146240237	775.7488403320317	130.0943908691407	83.15189361572268	432.2919921875002	136.6187896728516	198.1617736816407	398.1694335937502	171.315414428711	79.86711883544925	394.892028808594	87.21533966064456	116.5929412841797	340.4747314453126	136.6351470947266	135.1781463623047	215.0272827148439	-165.9019317626954	208.9552459716798	183.3908233642579	-117.8907470703126	201.8697509765626	219.5576324462892	-208.5839691162111	183.5301513671876	62.25647354125979	-123.846778869629	126.6384429931641	71.26311492919925	-126.3158111572266	96.34637451171881	108.7814559936524	-171.5714263916016	268.1350402832032	1373.376098632813	85.15005493164065	265.0344848632814	1138.813232421875	27.6139316558838	275.9472656250001	1151.3720703125	263.104949951172	275.8109741210939	1311.218872070313	216.4540863037111	360.0496215820314	1177.411865234375	20.24241447448731	354.4030761718751	1308.582397460938	40.88819122314455	466.2139282226565	1303.0400390625	111.7706527709962	452.410339355469	1315.05029296875	152.2867736816407	519.5665283203127	1027.195434570313	135.8898468017579	443.5992126464846	996.7055664062505	108.2989883422852	493.382263183594	995.2275390625005	103.4953384399415	478.3994750976565	795.5678100585942	228.827362060547	546.592712402344	794.4306640625005	185.6900634765626	486.0682678222659	712.0975341796877	256.2189025878907	550.9404907226565	717.0369873046877	178.4597625732422	146.8768768310547	1184.825439453125	30.83953285217287	174.3842315673829	1306.493896484375	52.66656494140628	76.37851715087893	1308.055908203125	137.0143737792969	93.9858322143555	1313.259399414063	184.624008178711	11.58411979675293	1012.155700683594	168.4672851562501	84.6491622924805	992.7389526367192	136.1965026855469	38.48844146728517	986.226440429688	136.492416381836	44.5348358154297	811.3146972656255	279.3209228515626	-23.41898155212403	806.542358398438	233.845428466797	30.7705764770508	726.4030761718752	317.9249267578126	-26.87880134582521	728.2192382812502	232.7293548583986	
